<svg xmlns="http://www.w3.org/2000/svg" width="79" height="100" viewBox="0 0 79 100">
  <g id="Group_6734" data-name="Group 6734" transform="translate(-471 -1044)">
    <path id="Path_26548" data-name="Path 26548" d="M62.7,1.5H1.5v97h76V16.3Z" transform="translate(471 1044)" fill="#fff" stroke="#656565" stroke-linejoin="round" stroke-width="3"/>
    <path id="Path_26540" data-name="Path 26540" d="M32.25,28A9.25,9.25,0,1,1,23,18.75" transform="translate(469.5 1043.5)" fill="none" stroke="#656565" stroke-linecap="round" stroke-linejoin="round" stroke-width="3"/>
    <line id="Line_1081" data-name="Line 1081" x2="20" transform="translate(511 1068.5)" fill="none" stroke="#656565" stroke-linecap="round" stroke-linejoin="round" stroke-width="3"/>
    <line id="Line_1082" data-name="Line 1082" x2="9.5" transform="translate(511.5 1076.5)" fill="none" stroke="#656565" stroke-linecap="round" stroke-linejoin="round" stroke-width="3"/>
    <path id="Path_26541" data-name="Path 26541" d="M22.923,32.2h-.038a1.853,1.853,0,0,1-1.5-.812l-2.85-4.163a1.861,1.861,0,1,1,3.072-2.1l1.374,2.008,4.145-5.575a1.863,1.863,0,0,1,2.989,2.223l-5.7,7.67a1.864,1.864,0,0,1-1.495.751" transform="translate(469.5 1043.5)" fill="#ffa319"/>
    <path id="Path_26542" data-name="Path 26542" d="M32.25,54A9.25,9.25,0,1,1,23,44.75" transform="translate(469.5 1043.5)" fill="none" stroke="#656565" stroke-linecap="round" stroke-linejoin="round" stroke-width="3"/>
    <line id="Line_1083" data-name="Line 1083" x2="20" transform="translate(511 1094.5)" fill="none" stroke="#656565" stroke-linecap="round" stroke-linejoin="round" stroke-width="3"/>
    <line id="Line_1084" data-name="Line 1084" x2="9.5" transform="translate(511.5 1102.5)" fill="none" stroke="#656565" stroke-linecap="round" stroke-linejoin="round" stroke-width="3"/>
    <path id="Path_26543" data-name="Path 26543" d="M22.923,58.2h-.038a1.853,1.853,0,0,1-1.5-.812l-2.85-4.163a1.861,1.861,0,1,1,3.072-2.1l1.374,2.008,4.145-5.575a1.863,1.863,0,0,1,2.989,2.223l-5.7,7.67a1.864,1.864,0,0,1-1.495.751" transform="translate(469.5 1043.5)" fill="#ffa319"/>
    <path id="Path_26544" data-name="Path 26544" d="M32.25,80A9.25,9.25,0,1,1,23,70.75" transform="translate(469.5 1043.5)" fill="none" stroke="#656565" stroke-linecap="round" stroke-linejoin="round" stroke-width="3"/>
    <line id="Line_1085" data-name="Line 1085" x2="20" transform="translate(511 1120.5)" fill="none" stroke="#656565" stroke-linecap="round" stroke-linejoin="round" stroke-width="3"/>
    <line id="Line_1086" data-name="Line 1086" x2="9.5" transform="translate(511.5 1128.5)" fill="none" stroke="#656565" stroke-linecap="round" stroke-linejoin="round" stroke-width="3"/>
    <path id="Path_26545" data-name="Path 26545" d="M22.923,84.2h-.038a1.853,1.853,0,0,1-1.5-.812l-2.85-4.163a1.861,1.861,0,1,1,3.072-2.1l1.374,2.008,4.145-5.575a1.863,1.863,0,0,1,2.989,2.223l-5.7,7.67a1.864,1.864,0,0,1-1.495.751" transform="translate(469.5 1043.5)" fill="#ffa319"/>
    <path id="Path_26549" data-name="Path 26549" d="M1.5,16.3H16.3L1.5,1.5Z" transform="translate(532 1044)" fill="rgba(101,101,101,0.15)" stroke="#656565" stroke-linejoin="round" stroke-width="3"/>
  </g>
</svg>
