<svg xmlns="http://www.w3.org/2000/svg" width="48" height="48" viewBox="0 0 48 48">
  <path id="CwU_Footer_Twitter" d="M700.1-35.729a24,24,0,0,0-24,24,24,24,0,0,0,24,24,24,24,0,0,0,24-24A24,24,0,0,0,700.1-35.729Zm12.8,17.124q.018.425.018.854c0,8.728-6.642,18.791-18.79,18.791A18.693,18.693,0,0,1,684.01-1.928a13.435,13.435,0,0,0,1.575.092,13.252,13.252,0,0,0,8.2-2.826,6.613,6.613,0,0,1-6.17-4.587,6.65,6.65,0,0,0,1.243.118,6.588,6.588,0,0,0,1.739-.232,6.609,6.609,0,0,1-5.3-6.475c0-.028,0-.055,0-.083a6.577,6.577,0,0,0,2.992.826,6.6,6.6,0,0,1-2.938-5.5,6.576,6.576,0,0,1,.894-3.32,18.751,18.751,0,0,0,13.613,6.9,6.624,6.624,0,0,1-.171-1.5,6.6,6.6,0,0,1,6.6-6.6,6.6,6.6,0,0,1,4.82,2.085,13.194,13.194,0,0,0,4.194-1.6,6.625,6.625,0,0,1-2.9,3.654,13.208,13.208,0,0,0,3.793-1.04A13.416,13.416,0,0,1,712.905-18.6Z" transform="translate(-676.105 35.729)" fill="#24484b"/>
</svg>
