<svg xmlns="http://www.w3.org/2000/svg" width="17" height="14" viewBox="0 0 17 14">
  <g id="Icon_SecMen_Wallet" transform="translate(-824 -12)">
    <path id="Icon_SecMen_Wallet-2" data-name="Icon_SecMen_Wallet" d="M-173,254.1a3.1,3.1,0,0,0-.209-1.1H-188.5l1-1h13.67a3.078,3.078,0,0,0-2.266-1H-186.9a3.1,3.1,0,0,0-3.1,3.1V261.9a3.1,3.1,0,0,0,3.1,3.1H-176.1a3.1,3.1,0,0,0,3.1-3.1V261h-4a2,2,0,0,1-2-2,2,2,0,0,1,2-2h4Z" transform="translate(1014 -239)" fill="#656565"/>
    <circle id="Ellipse_406" data-name="Ellipse 406" cx="1" cy="1" r="1" transform="translate(837 19)" fill="#656565"/>
  </g>
</svg>
