<svg xmlns="http://www.w3.org/2000/svg" width="128.351" height="57.181" viewBox="0 0 128.351 57.181">
  <g id="JollyLotto_Logo" data-name="JollyLotto Logo" transform="translate(-225.452 -18.32)">
    <g id="Group_6360" data-name="Group 6360">
      <path id="Path_26313" data-name="Path 26313" d="M111.034,45.284h-4.69V19.24a1.248,1.248,0,0,1,1.248-1.248h3.442Z" transform="translate(185.026 11.896)" fill="#24484b" stroke="rgba(0,0,0,0)" stroke-width="1"/>
      <path id="Path_26314" data-name="Path 26314" d="M165.906,36.2V32.47h-3.878V26.865H159.02a1.654,1.654,0,0,0-1.654,1.654V32.47h-5.4V26.865h-3.023A1.639,1.639,0,0,0,147.3,28.5v3.967h-2.32V36.2h2.32v6.864c0,2.241.43,3.748,1.351,4.739a5.081,5.081,0,0,0,3.765,1.436,9.252,9.252,0,0,0,3.074-.421l.223-.087-.081-3.793-.423.116a5.705,5.705,0,0,1-1.5.187c-1.048,0-1.746-.449-1.746-2.641V36.2h5.4v6.864c0,2.242.43,3.748,1.35,4.74a5.083,5.083,0,0,0,3.766,1.436,9.25,9.25,0,0,0,3.074-.421l.223-.087-.081-3.793-.423.116a5.707,5.707,0,0,1-1.5.187c-1.047,0-1.745-.449-1.745-2.641V36.2Z" transform="translate(170.14 8.477)" fill="#24484b" stroke="rgba(0,0,0,0)" stroke-width="1"/>
      <path id="Path_26315" data-name="Path 26315" d="M125.041,35.826a8.436,8.436,0,1,0,8.436,8.436,8.436,8.436,0,0,0-8.436-8.436m0,12.148a3.713,3.713,0,1,1,3.713-3.713,3.713,3.713,0,0,1-3.713,3.713" transform="translate(181.072 5.023)" fill="#24484b" stroke="rgba(0,0,0,0)" stroke-width="1"/>
      <path id="Path_26316" data-name="Path 26316" d="M188.087,35.826a8.436,8.436,0,1,0,8.436,8.436,8.436,8.436,0,0,0-8.436-8.436m0,12.148a3.713,3.713,0,1,1,3.713-3.713,3.713,3.713,0,0,1-3.713,3.713" transform="translate(156.781 5.023)" fill="#24484b" stroke="rgba(0,0,0,0)" stroke-width="1"/>
    </g>
    <g id="Group_6359" data-name="Group 6359">
      <path id="Path_26317" data-name="Path 26317" d="M70.533,48.706h-4.69V28.122a1.248,1.248,0,0,1,1.248-1.248h3.442Z" transform="translate(200.631 8.473)" fill="#00bfcc" stroke="rgba(0,0,0,0)" stroke-width="1"/>
      <path id="Path_26318" data-name="Path 26318" d="M58.708,48.706h-4.69V28.122a1.248,1.248,0,0,1,1.248-1.248h3.442Z" transform="translate(205.187 8.473)" fill="#00bfcc" stroke="rgba(0,0,0,0)" stroke-width="1"/>
      <path id="Path_26319" data-name="Path 26319" d="M6.412,61.646a1.919,1.919,0,0,1,1.307-2.08,2.839,2.839,0,0,0,1.245-.724c.68-.711.927-1.916.927-4.915v-16.9a1.085,1.085,0,0,1,1.082-1.082h3.648v19.1c0,3.308-.743,5.317-2.134,6.615A8.608,8.608,0,0,1,6.647,63.51Z" transform="translate(223.535 4.979)" fill="#00bfcc" stroke="rgba(0,0,0,0)" stroke-width="1"/>
      <path id="Path_26320" data-name="Path 26320" d="M31.107,35.826a8.436,8.436,0,1,0,8.436,8.436,8.436,8.436,0,0,0-8.436-8.436m0,12.148a3.713,3.713,0,1,1,3.713-3.713,3.713,3.713,0,0,1-3.713,3.713" transform="translate(217.265 5.023)" fill="#00bfcc" stroke="rgba(0,0,0,0)" stroke-width="1"/>
      <path id="Path_26321" data-name="Path 26321" d="M75.6,35.947H72.373a2.158,2.158,0,0,0-2.05,1.483L67.355,46.6,63.81,35.947H61.054a1.489,1.489,0,0,0-1.392,2.017l4.732,12.587A15.046,15.046,0,0,1,35.62,56.586H32.769a1.376,1.376,0,0,0-1.287,1.856,19.581,19.581,0,0,0,36.047-.717c.561-1.319,1.249-3.045,1.481-3.63Z" transform="translate(213.903 4.979)" fill="#00bfcc" stroke="rgba(0,0,0,0)" stroke-width="1"/>
    </g>
    <g id="Group_6368" data-name="Group 6368">
      <path id="Union_12" data-name="Union 12" d="M10656.435,16753.525a17.521,17.521,0,0,1-1.978.637,14.039,14.039,0,0,1-1.482.3,6.253,6.253,0,0,1-2.262-.021,2.233,2.233,0,0,1-1.652-2.687,2.128,2.128,0,0,1,1.871-1.865Z" transform="translate(-10423 -16725.039)" fill="#ff514d" stroke="rgba(0,0,0,0)" stroke-width="1"/>
      <path id="Union_10" data-name="Union 10" d="M10654.83,16749.414l-4.541,6.875a21.833,21.833,0,0,1-.795-2.471,17.169,17.169,0,0,1-.379-1.852,7.789,7.789,0,0,1,.027-2.826,2.788,2.788,0,0,1,3.355-2.064,2.659,2.659,0,0,1,2.332,2.338" transform="translate(-10415.184 -16728.172)" fill="#00bfcc" stroke="rgba(0,0,0,0)" stroke-width="1"/>
      <path id="Union_11" data-name="Union 11" d="M10655.576,16752.576l-6.576-4.344a21.014,21.014,0,0,1,2.364-.76,16.538,16.538,0,0,1,1.771-.363,7.489,7.489,0,0,1,2.7.025,2.668,2.668,0,0,1,1.974,3.211,2.545,2.545,0,0,1-2.236,2.23" transform="translate(-10413.527 -16718.547)" fill="#ffa319" stroke="rgba(0,0,0,0)" stroke-width="1"/>
      <path id="Union_13" data-name="Union 13" d="M10654.334,16755.268a2.391,2.391,0,0,1-2.094-2.1l4.076-6.168a19.8,19.8,0,0,1,.714,2.217,15.853,15.853,0,0,1,.34,1.662,7.006,7.006,0,0,1-.024,2.535,2.505,2.505,0,0,1-3.012,1.854" transform="translate(-10422.477 -16716.898)" fill="#33c400" stroke="rgba(0,0,0,0)" stroke-width="1"/>
      <path id="Path_26332" data-name="Path 26332" d="M20.813,24.935a2.668,2.668,0,0,1-3.728-.556A7.478,7.478,0,0,1,16,21.9a16.541,16.541,0,0,0-.362-1.772,20.923,20.923,0,0,1-.229-2.472L21.987,22a2.545,2.545,0,0,1-1.174,2.932" transform="translate(220.063 12.023)" fill="#fe7b0a" stroke="rgba(0,0,0,0)" stroke-width="1"/>
      <path id="Path_26333" data-name="Path 26333" d="M8.169,18.339l-4.075,6.17a2.388,2.388,0,0,1-2.751-1.1,2.5,2.5,0,0,1,.522-3.5,7,7,0,0,1,2.322-1.017,15.439,15.439,0,0,0,1.662-.34,19.7,19.7,0,0,1,2.319-.214" transform="translate(225.671 11.762)" fill="#2eb200"/>
      <path id="Path_26330" data-name="Path 26330" d="M8.572,11.626,3.068,7.99a2.13,2.13,0,0,1,.983-2.453A2.233,2.233,0,0,1,7.171,6a6.255,6.255,0,0,1,.907,2.072,13.776,13.776,0,0,0,.3,1.482,17.666,17.666,0,0,1,.191,2.069" transform="translate(224.864 16.863)" fill="#ee3d39"/>
      <path id="Path_26331" data-name="Path 26331" d="M21.836,8.958a7.8,7.8,0,0,1-2.589,1.134,17.469,17.469,0,0,0-1.852.379,21.964,21.964,0,0,1-2.585.239l4.541-6.876a2.662,2.662,0,0,1,3.066,1.228,2.789,2.789,0,0,1-.582,3.9" transform="translate(220.293 17.408)" fill="#00aeb9" stroke="rgba(0,0,0,0)" stroke-width="1"/>
    </g>
  </g>
</svg>
