<svg xmlns="http://www.w3.org/2000/svg" width="23" height="23" viewBox="0 0 23 23">
  <g id="MainMenu_Icon_Mail" data-name="MainMenu Icon Mail" transform="translate(-790.5 -793.5)">
    <path id="Path_1764" data-name="Path 1764" d="M566.584,954.771a11,11,0,1,0,11,11A11,11,0,0,0,566.584,954.771Z" transform="translate(235.416 -160.771)" fill="#656565" stroke="rgba(0,0,0,0)" stroke-width="1"/>
    <path id="Path_5560" data-name="Path 5560" d="M571.019,960.629h-9.6a1.224,1.224,0,0,0-1.194,1.25l-.006,7.5a1.23,1.23,0,0,0,1.2,1.25h9.6a1.229,1.229,0,0,0,1.2-1.25v-7.5A1.229,1.229,0,0,0,571.019,960.629Zm0,2.5-4.8,3.125-4.8-3.125v-1.25l4.8,3.125,4.8-3.125Z" transform="translate(235.781 -160.629)" fill="#fff"/>
  </g>
</svg>
