<svg xmlns="http://www.w3.org/2000/svg" width="21" height="22" viewBox="0 0 21 22">
  <g id="Icon_SecMen_Account" transform="translate(-1005 -8)">
    
    <path id="path3872_1_" d="M8.077,0A3.063,3.063,0,0,0,4.661,3.02L4.638,4.626c-.283,0-.351.278-.351.836a3.339,3.339,0,0,0,.977,2.167,3.826,3.826,0,0,0,.861,1.68l-.042.025h0c-1.38.841-3.023,1.411-4.1,1.98a2.646,2.646,0,0,0-.87.782,4.984,4.984,0,0,0-.456.768c-.006.008-.008.02-.014.028-.017.037-.034.074-.051.113a6.708,6.708,0,0,0-.538,1.742.142.142,0,0,0-.006.034c-.006.028-.011.057-.014.085-.017.1-.037.2-.051.306a2.348,2.348,0,0,0-.023.348.036.036,0,0,1,0,.017c-.04.544.98.72.98.72a14.884,14.884,0,0,0,1.935.351,35.312,35.312,0,0,0,4.6.382c.147.006.3.008.465.008h.278c.161,0,.317,0,.465-.008a34.824,34.824,0,0,0,4.6-.382,14.948,14.948,0,0,0,1.938-.351s1.017-.176.98-.72a.036.036,0,0,0,0-.017,2.02,2.02,0,0,0-.023-.348c-.02-.144-.045-.292-.074-.439a6.8,6.8,0,0,0-.615-1.9l-.008-.02a5.111,5.111,0,0,0-.431-.717,2.674,2.674,0,0,0-.87-.782c-1.074-.569-2.72-1.139-4.1-1.98h0l-.042-.025a3.768,3.768,0,0,0,.861-1.68,3.339,3.339,0,0,0,.977-2.167c0-.558-.068-.839-.351-.836L11.5,3.023A3.076,3.076,0,0,0,8.077,0Z" transform="translate(1007.039 8)" fill="#fff"/>
  </g>
</svg>