<svg xmlns="http://www.w3.org/2000/svg" width="136" height="17.652" viewBox="0 0 136 17.652">
  <g id="ST_Footer_GA" transform="translate(-401.845 -737.728)">
    <path id="Path_5031" data-name="Path 5031" d="M401.845,745.115h3.925a8.089,8.089,0,0,1,2.892.258,2.672,2.672,0,0,1,1.549,2.478,1.976,1.976,0,0,1-1.342,2.065,2.454,2.454,0,0,1,1.7,2.53c0,1.7-1.342,2.84-3.3,2.84h-5.422v-1.652h.775v-6.868h-.775v-1.653Zm2.892,1.653v2.478h2.014a1.331,1.331,0,0,0,1.446-1.188v-.1c0-.671-.671-1.187-1.6-1.187Zm0,4.079v2.789h2.169a1.463,1.463,0,0,0,1.6-1.343v-.051c0-.878-.722-1.446-1.807-1.446l-1.962.052Z" transform="translate(0 -1.655)" fill="#24484b"/>
    <path id="Path_5032" data-name="Path 5032" d="M422.007,753.4a3.451,3.451,0,0,1-3.614,2.737,4.092,4.092,0,0,1,0-8.158,3.548,3.548,0,0,1,3,1.6,5.189,5.189,0,0,1,.774,2.891h-5.577c.206,2.014,1.5,2.118,1.858,2.118a1.612,1.612,0,0,0,1.6-1.136l1.962-.052Zm-1.962-2.272a1.553,1.553,0,0,0-1.549-1.549h-.052a1.822,1.822,0,0,0-1.755,1.5l3.356.051Z" transform="translate(-2.863 -2.296)" fill="#24484b"/>
    <path id="Path_5033" data-name="Path 5033" d="M431.042,750.152H434.6v5.061h-1.136v-1.6a4.649,4.649,0,0,1-.775.982,3.618,3.618,0,0,1-2.323.878c-2.376,0-4.234-2.324-4.234-5.319s1.858-5.37,4.182-5.37a3.372,3.372,0,0,1,3.046,1.756v-1.6h1.085v3.254h-1.136a3.4,3.4,0,0,0-.568-1.24,3.016,3.016,0,0,0-2.169-1.136c-1.239,0-3.1,1.085-3.1,4.234,0,2.479,1.342,4.286,3.1,4.286a2.971,2.971,0,0,0,2.788-2.427,4.413,4.413,0,0,0,.052-.826H430.99l.052-.93Z" transform="translate(-5.443 -1.58)" fill="#24484b"/>
    <path id="Path_5034" data-name="Path 5034" d="M446.1,756.011h-2.221v-1.394a2.957,2.957,0,0,1-2.634,1.549,2.406,2.406,0,0,1-2.53-2.22v-.155c0-1.5,1.291-2.22,4.39-2.53l.723-.051v-.775c0-.878-.671-1.445-1.756-1.445s-1.653.362-1.859,1.394h-1.187a2.744,2.744,0,0,1,.878-1.6,3.3,3.3,0,0,1,2.066-.671c1.6,0,2.943.722,2.943,2.685v4.286h1.085l.1.93Zm-2.221-4.028-.722.1c-2.376.31-3.15.723-3.15,1.7a1.588,1.588,0,0,0,1.6,1.5,2.374,2.374,0,0,0,2.272-2.014v-1.291Z" transform="translate(-8.26 -2.326)" fill="#24484b"/>
    <path id="Path_5035" data-name="Path 5035" d="M451.751,749.629a2.968,2.968,0,0,1,2.479-1.6,1.683,1.683,0,0,1,1.807,1.6,4.339,4.339,0,0,1,.723-.981,2.485,2.485,0,0,1,1.652-.671c1.188,0,1.859.774,1.859,2.117V755h1.084v.93h-2.169v-5.422c0-1.085-.361-1.6-1.136-1.6-1.342,0-2.066,1.6-2.066,2.169V755h1.136v.93H454.85v-5.577c0-.981-.362-1.394-1.136-1.394-1.187,0-2.066,1.5-2.066,2.221v3.873h1.136v.93h-3.356v-.93h1.136v-5.99h-1.136v-.93H451.7l.051,1.5Z" transform="translate(-10.661 -2.296)" fill="#24484b"/>
    <path id="Path_5036" data-name="Path 5036" d="M466.316,744.516h2.169v4.493a3.111,3.111,0,0,1,2.53-1.7c1.756,0,3.1,1.807,3.1,4.079,0,2.118-1.446,3.925-3.1,3.925a3.048,3.048,0,0,1-2.53-1.55v1.446h-2.221v-.93h1.085v-8.83h-1.033v-.93Zm2.169,7.385a2.423,2.423,0,0,0,2.221,2.426c1.342,0,2.169-1.187,2.169-3.1s-.878-3.046-2.169-3.046a2.543,2.543,0,0,0-2.272,2.375l.051,1.343Z" transform="translate(-14.433 -1.521)" fill="#24484b"/>
    <path id="Path_5037" data-name="Path 5037" d="M477.219,744.516h2.22v9.76h1.033v.93h-3.3v-.93H478.3v-8.881h-1.084v-.878Z" transform="translate(-16.876 -1.521)" fill="#24484b"/>
    <path id="Path_5038" data-name="Path 5038" d="M489.271,753.842a2.628,2.628,0,0,1-.62,1.187,3.217,3.217,0,0,1-2.478,1.136c-2.118,0-3.614-1.652-3.614-4.027,0-2.273,1.5-4.028,3.408-4.028s3.46,1.5,3.46,4.234H483.8a3.455,3.455,0,0,0,.878,2.323,2.218,2.218,0,0,0,1.446.569,1.9,1.9,0,0,0,1.859-1.343l1.291-.051Zm-1.136-2.376a2.863,2.863,0,0,0-.774-1.962,1.74,1.74,0,0,0-1.291-.465A2.263,2.263,0,0,0,484,750.692a4.1,4.1,0,0,0-.155.774Z" transform="translate(-18.084 -2.326)" fill="#24484b"/>
    <path id="Path_5039" data-name="Path 5039" d="M496.5,745.115h2.478l2.84,8.572h.775v1.653h-2.324l-.671-2.221h-3.614l-.672,2.221h-2.375v-1.653h.774Zm1.239,1.91L496.4,751.57h2.685Z" transform="translate(-20.41 -1.655)" fill="#24484b"/>
    <path id="Path_5040" data-name="Path 5040" d="M505.251,748.243h3.1v1.5h-.775l1.085,4.6,1.291-6.094h2.014l1.291,5.99,1.033-4.493h-.775v-1.5h3.1v1.5h-.671l-1.652,6.248h-2.066l-1.291-5.37-1.239,5.37h-2.066l-1.7-6.248h-.671v-1.5Z" transform="translate(-23.169 -2.356)" fill="#24484b"/>
    <path id="Path_5041" data-name="Path 5041" d="M527.358,754.513h.671v1.5H525.6v-.93a2.965,2.965,0,0,1-2.376,1.084,2.539,2.539,0,0,1-2.737-2.426c0-2.273,2.582-2.53,5.061-2.737,0-1.188-.413-1.549-1.394-1.549s-1.342.465-1.394,1.188v.051l-1.858-.051c.1-1.549,1.342-2.53,3.2-2.53,2.169,0,3.3.981,3.3,2.737l-.052,3.666Zm-1.859-2.169c-1.807.154-2.994.31-2.994,1.394,0,.619.516,1.033,1.29,1.033a1.756,1.756,0,0,0,1.756-1.653v-.774Z" transform="translate(-26.583 -2.326)" fill="#24484b"/>
    <path id="Path_5042" data-name="Path 5042" d="M534.165,749.437a2.092,2.092,0,0,1,1.962-1.394,5.133,5.133,0,0,1,.878.1v1.808a5.653,5.653,0,0,0-.93-.1,1.74,1.74,0,0,0-1.859,1.6v3h.93v1.5h-3.614v-1.5h.774V749.7h-.774v-1.5h2.634Z" transform="translate(-29.057 -2.311)" fill="#24484b"/>
    <path id="Path_5043" data-name="Path 5043" d="M546.5,753.4a3.451,3.451,0,0,1-3.614,2.737,4.092,4.092,0,0,1,0-8.158,3.546,3.546,0,0,1,2.994,1.6,5.183,5.183,0,0,1,.775,2.891h-5.578c.206,2.014,1.5,2.118,1.859,2.118a1.613,1.613,0,0,0,1.6-1.136l1.962-.052Zm-2.014-2.272a1.553,1.553,0,0,0-1.549-1.549h-.052a1.822,1.822,0,0,0-1.755,1.5l3.356.051Z" transform="translate(-30.756 -2.296)" fill="#24484b"/>
    <g id="Group_5721" data-name="Group 5721" transform="translate(534.339 738.862)" style="mix-blend-mode: normal;isolation: isolate">
      <path id="Path_5044" data-name="Path 5044" d="M573.825,739.189a.858.858,0,0,1,.583.183.629.629,0,0,1,.21.5.794.794,0,0,1-.107.417.555.555,0,0,1-.346.245v.007a.466.466,0,0,1,.185.073.414.414,0,0,1,.113.123.578.578,0,0,1,.063.159c.012.059.023.119.03.183s.008.128.011.194.009.13.019.193a1.08,1.08,0,0,0,.042.181.445.445,0,0,0,.082.152h-.387a.214.214,0,0,1-.05-.109,1.083,1.083,0,0,1-.016-.156c0-.057,0-.118-.008-.185a1.233,1.233,0,0,0-.022-.193c-.01-.064-.022-.123-.036-.182a.437.437,0,0,0-.07-.15.334.334,0,0,0-.124-.1.449.449,0,0,0-.2-.039h-.849V741.8H572.6v-2.61Zm.073,1.185a.519.519,0,0,0,.193-.071.388.388,0,0,0,.131-.143.471.471,0,0,0,.05-.232.466.466,0,0,0-.11-.322.449.449,0,0,0-.355-.124h-.863v.91h.724A1.458,1.458,0,0,0,573.9,740.374Z" transform="translate(-572.597 -739.189)" fill="#24484b"/>
    </g>
    <g id="Group_5722" data-name="Group 5722" transform="translate(532.784 737.728)">
      <path id="Path_5045" data-name="Path 5045" d="M573.123,742.789a2.53,2.53,0,1,1,2.53-2.53A2.533,2.533,0,0,1,573.123,742.789Zm0-4.647a2.117,2.117,0,1,0,2.118,2.117A2.119,2.119,0,0,0,573.123,738.142Z" transform="translate(-570.593 -737.728)" fill="#24484b"/>
    </g>
    <g id="Group_5723" data-name="Group 5723" transform="translate(516.827 747.921)">
      <path id="Path_5046" data-name="Path 5046" d="M550.028,756.974h.964v.944h-.964Z" transform="translate(-550.028 -752.233)" fill="#24484b"/>
      <path id="Path_5047" data-name="Path 5047" d="M552.381,753.75a2.6,2.6,0,0,1,2.562-2.873,2.92,2.92,0,0,1-.02,5.8C553.408,756.677,552.381,755.494,552.381,753.75Zm2.531,2.231c1.058,0,1.691-.85,1.691-2.251,0-1.318-.664-2.158-1.691-2.158-1.006,0-1.629.84-1.629,2.2C553.284,755.162,553.9,755.981,554.912,755.981Z" transform="translate(-550.555 -750.867)" fill="#24484b"/>
      <path id="Path_5048" data-name="Path 5048" d="M561.323,752.244a2.714,2.714,0,0,1,.664-1,1.568,1.568,0,0,1,1.017-.383,4.4,4.4,0,0,1,.6.062v.819a3.258,3.258,0,0,0-.591-.072,1.741,1.741,0,0,0-1.692,1.649V755.9h.954v.653h-2.552V755.9h.8v-4.274h-.83v-.664h1.629Z" transform="translate(-552.194 -750.864)" fill="#24484b"/>
      <path id="Path_5049" data-name="Path 5049" d="M569.239,755.183a1.958,1.958,0,0,1-1.681.954c-1.338,0-2.262-1.1-2.262-2.686a2.3,2.3,0,0,1,2.169-2.573,2.03,2.03,0,0,1,1.774,1.079v-1h1.577v.664h-.778v4.585c0,1.349-.861,2.117-2.375,2.117a2.342,2.342,0,0,1-2.086-1.058,3.165,3.165,0,0,1-.228-.55h.9a1.421,1.421,0,0,0,1.474.923c.944,0,1.515-.487,1.515-1.3Zm0-2.158a1.729,1.729,0,0,0-1.6-1.484c-.913,0-1.473.746-1.473,1.961,0,1.234.571,1.981,1.526,1.981a1.637,1.637,0,0,0,1.546-1.453Z" transform="translate(-553.449 -750.867)" fill="#24484b"/>
    </g>
  </g>
</svg>
