<svg xmlns="http://www.w3.org/2000/svg" xmlns:xlink="http://www.w3.org/1999/xlink" width="121" height="120.26" viewBox="0 0 121 120.26">
  <defs>
    <filter id="Path_5584" x="0" y="0" width="121" height="120.26" filterUnits="userSpaceOnUse">
      <feOffset dy="1" input="SourceAlpha"/>
      <feGaussianBlur stdDeviation="2" result="blur"/>
      <feFlood flood-color="#173f57" flood-opacity="0.522"/>
      <feComposite operator="in" in2="blur"/>
      <feComposite in="SourceGraphic"/>
    </filter>
    <clipPath id="clip-path">
      <path id="Path_5525" data-name="Path 5525" d="M662.6,42.765c0,16.452-13.337,28.991-29.79,28.991S603.02,59.217,603.02,42.765a29.789,29.789,0,0,1,59.579,0Z" transform="translate(-603.02 -12.976)" fill="none"/>
    </clipPath>
  </defs>
  <g id="Group_6177" data-name="Group 6177" transform="translate(-2069 12449)">
    <g transform="matrix(1, 0, 0, 1, 2069, -12449)" filter="url(#Path_5584)">
      <path id="Path_5584-2" data-name="Path 5584" d="M0,0H109V93a7,7,0,0,1-7,7l-46.7,8.26L7,100a7,7,0,0,1-7-7Z" transform="translate(6 5)" fill="#6eb300"/>
    </g>
    <g id="_10toWin" data-name="10toWin" transform="translate(2088.601 -12434.901)">
      <g id="Cash_Warranty_Logo" data-name="Cash Warranty Logo" transform="translate(0 0)">
        <g id="Group_5964" data-name="Group 5964" transform="translate(9.958 15.446)">
          <path id="Path_5520" data-name="Path 5520" d="M662.878,48.289c0,16.605-13.461,29.261-30.066,29.261s-30.066-12.656-30.066-29.261a30.066,30.066,0,1,1,60.133,0Z" transform="translate(-602.745 -18.223)" fill="#ffc30d"/>
        </g>
        <path id="Path_5521" data-name="Path 5521" d="M632.9,82c-22.444,0-40.024-17.153-40.024-39.056a40.024,40.024,0,0,1,80.048,0C672.925,64.841,655.345,82,632.9,82Z" transform="translate(-592.878 -2.916)" fill="#fd0"/>
        <path id="Path_5522" data-name="Path 5522" d="M632.844,10.715a33.673,33.673,0,0,0-33.635,33.634c0,18.3,14.775,32.626,33.635,32.626s33.635-14.331,33.635-32.626a33.673,33.673,0,0,0-33.635-33.634Z" transform="translate(-592.82 -2.847)" fill="#fff"/>
        <path id="Path_5523" data-name="Path 5523" d="M633.117,8.914a33.673,33.673,0,0,0-33.635,33.634c0,18.3,14.774,32.626,33.635,32.626s33.635-14.33,33.635-32.626A33.673,33.673,0,0,0,633.117,8.914Z" transform="translate(-592.818 -2.863)" fill="#f0a700"/>
        <path id="Path_5524" data-name="Path 5524" d="M632.844,10.1a33.672,33.672,0,0,0-33.635,33.635c0,18.3,14.775,32.626,33.635,32.626s33.635-14.331,33.635-32.626A33.673,33.673,0,0,0,632.844,10.1Z" transform="translate(-592.82 -2.851)" fill="#ffc000"/>
        <g id="Group_5968" data-name="Group 5968" transform="translate(10.235 10.151)">
          <g id="Group_5967" data-name="Group 5967" transform="translate(0 0)" clip-path="url(#clip-path)">
            <g id="Group_5965" data-name="Group 5965" transform="translate(-4.86 -12.173)">
              <rect id="Rectangle_3714" data-name="Rectangle 3714" width="7.074" height="83.853" transform="translate(59.296 0) rotate(45.003)" fill="#fd0"/>
            </g>
            <g id="Group_5966" data-name="Group 5966" transform="translate(-1.529 -3.673)">
              <rect id="Rectangle_3715" data-name="Rectangle 3715" width="16.606" height="90.528" transform="translate(64.014) rotate(45)" fill="#fd0"/>
            </g>
          </g>
        </g>
        <g id="Group_5969" data-name="Group 5969" transform="translate(56.646 25.73)">
          <path id="Path_5526" data-name="Path 5526" d="M149.75,264.838a4.443,4.443,0,0,0-.52.11c-.185.051-.366.1-.543.155-.127.038-.249.073-.367.1s-.225.058-.321.077c-.024.148-.051.281-.08.4s-.062.232-.1.342a3.378,3.378,0,0,0-.092.356c-.025.12-.049.247-.067.382a3.038,3.038,0,0,0-.116.31,1.424,1.424,0,0,0-.058.311,1.093,1.093,0,0,0-.13.332,2.859,2.859,0,0,0-.046.291l-.022.122a.252.252,0,0,0-.055.1.126.126,0,0,1-.04.07.55.55,0,0,1-.036.224.545.545,0,0,0-.016.1.365.365,0,0,0,0,.065.138.138,0,0,1-.03.134.291.291,0,0,1,.015.1c0,.037,0,.072,0,.105a.515.515,0,0,0,.007.188l.063.058a.171.171,0,0,1,.045.072.46.46,0,0,0,.095.036.8.8,0,0,0,.127.051l.1.084a.537.537,0,0,1-.022.459.6.6,0,0,1-.468.257l-.116.017a.243.243,0,0,1-.07-.069l-.134-.03a.2.2,0,0,1-.1-.065c-.09-.027-.162-.049-.219-.067l-.094-.036c-.01-.071-.016-.11-.017-.116a.636.636,0,0,1-.131-.178,1.8,1.8,0,0,1-.084-.206c-.022-.058-.045-.108-.068-.158a.527.527,0,0,0-.083-.127,2.84,2.84,0,0,1-.033-.968c.046-.27.1-.533.153-.786q.049-.2.1-.416a4.119,4.119,0,0,0,.076-.433l.073-.11.074-.273c.02-.072.039-.147.061-.223.013-.048.024-.094.035-.138s.018-.084.027-.116a1.08,1.08,0,0,0-.106.021c-.032.008-.063.018-.1.029s-.073.022-.1.03a.878.878,0,0,1-.1.019.35.35,0,0,1-.1.005.571.571,0,0,1-.226.083l-.1.014a.268.268,0,0,1-.055,0,.18.18,0,0,0-.045,0,.353.353,0,0,0-.151.052l-.223.033-.1.015a.3.3,0,0,0-.048.012.356.356,0,0,1-.048.012.875.875,0,0,1-.148.007.576.576,0,0,1-.174-.039q-.139-.139-.18-.143l-.1-.1a.642.642,0,0,0-.045-.107c-.018-.034-.037-.072-.058-.116s-.07-.127-.1-.2a.929.929,0,0,1-.073-.262.247.247,0,0,1,.022-.123c.016-.029.029-.054.039-.075l.008-.15.128-.008.272-.04q.311-.045.628-.116c.211-.048.428-.1.653-.15l.388-.1.407-.1c.017-.063.035-.121.053-.174l.09-.063a.4.4,0,0,1,.254.007,1.145,1.145,0,0,1,.137.085q.211-.051.426-.107c.144-.037.287-.08.433-.128q.323-.1.653-.185a5.609,5.609,0,0,1,.639-.134c.091-.013.178-.023.263-.028a2.312,2.312,0,0,1,.237-.005l.108.054a.37.37,0,0,0,.1.095c.04.027.083.053.126.081a2.242,2.242,0,0,1,.27.219.581.581,0,0,1,.151.414.447.447,0,0,1-.1.153l-.071.13-.1,0a.373.373,0,0,0-.1.03c-.031.015-.062.031-.092.048s-.049.032-.073.046a.611.611,0,0,1-.084.037c-.058.009-.105.014-.141.016A.979.979,0,0,0,149.75,264.838Z" transform="translate(-144.144 -259.853)" fill="#02222e"/>
          <path id="Path_5527" data-name="Path 5527" d="M162.886,265.059a.651.651,0,0,0,.052.22,1.633,1.633,0,0,0,.1.2c.039.063.077.129.113.2a1.332,1.332,0,0,1,.09.206,1.152,1.152,0,0,1,.044.3,1.731,1.731,0,0,1-.023.321,1.2,1.2,0,0,1-.086.291.524.524,0,0,1-.159.206.964.964,0,0,1-.291.321,1.923,1.923,0,0,0-.326.285.739.739,0,0,1-.224.131l-.258.1c-.066.049-.144.1-.233.159s-.186.11-.284.16a1.791,1.791,0,0,1-.3.123,1.171,1.171,0,0,1-.27.055,2.623,2.623,0,0,1-.548.224,2.03,2.03,0,0,1-.652.051,1.666,1.666,0,0,1-.65.066,1.54,1.54,0,0,1-.56-.171,1.843,1.843,0,0,1-.459-.349,2.427,2.427,0,0,1-.349-.46,2.606,2.606,0,0,1-.109-1.011,3.477,3.477,0,0,1,.213-.885,4.535,4.535,0,0,1,.4-.782q.233-.367.451-.716a.1.1,0,0,0,.091-.019.247.247,0,0,0,.053-.077.766.766,0,0,1,.051-.092.149.149,0,0,1,.076-.058.471.471,0,0,1,.167-.248.545.545,0,0,0,.178-.239.432.432,0,0,0,.137-.08.917.917,0,0,0,.1-.1,1.447,1.447,0,0,1,.1-.109.378.378,0,0,1,.127-.083l-.016-.106a.688.688,0,0,0,.233-.217l.163-.277a1.318,1.318,0,0,1,.139-.03.961.961,0,0,0,.158-.044,1.2,1.2,0,0,1,.11-.224.965.965,0,0,1,.168-.174.834.834,0,0,0,.269.04.431.431,0,0,1,.267.09.256.256,0,0,0,.081.141.719.719,0,0,0,.121.082c.043.024.085.049.125.076a.262.262,0,0,1,.093.126c.027,0,.044,0,.052-.017s.026-.02.052-.017a.427.427,0,0,0,.094.169.5.5,0,0,1,.1.159.941.941,0,0,0-.044.209.223.223,0,0,1-.1.169c0,.047.017.069.049.067a.062.062,0,0,1,.066.045.15.15,0,0,1-.011.13,6.584,6.584,0,0,1,.535.74,6.5,6.5,0,0,0,.532.738Zm-1.079,1.1a.514.514,0,0,1,.076-.189.325.325,0,0,0,.044-.215.457.457,0,0,1-.077-.113.77.77,0,0,1-.03-.139,3.887,3.887,0,0,1-.465-.592,4.983,4.983,0,0,0-.445-.595.256.256,0,0,1-.058.088c-.028.031-.065.029-.109,0a.189.189,0,0,1-.052.122.158.158,0,0,1-.1.045.439.439,0,0,1-.126-.011.408.408,0,0,1-.121-.047q-.249.265-.5.52a2.841,2.841,0,0,0-.433.57c-.024.016-.04.024-.047.022s-.026.006-.058.023a1.625,1.625,0,0,1-.14.363q-.087.167-.174.338a2.061,2.061,0,0,0-.136.357,1.118,1.118,0,0,0-.028.421.761.761,0,0,0,.413.108,2.167,2.167,0,0,0,.465-.058,4.436,4.436,0,0,0,.457-.131,2.356,2.356,0,0,1,.415-.106,2.8,2.8,0,0,0,.662-.359Q161.511,266.373,161.807,266.16Z" transform="translate(-152.418 -258.993)" fill="#02222e"/>
          <path id="Path_5528" data-name="Path 5528" d="M189.463,263.549a1.271,1.271,0,0,1-.606-.378c-.162-.181-.326-.385-.491-.612l-.076-.108c-.025-.036-.05-.069-.074-.1l-.174-.232-.1-.144-.1.124-.152.181-.083.11q-.219.27-.442.537a4.189,4.189,0,0,1-.484.488,3.031,3.031,0,0,1-.56.38,2.208,2.208,0,0,1-.667.221l-.23-.075c-.133-.046-.245-.09-.337-.129a1.716,1.716,0,0,1-.327-.2c-.041-.054-.077-.1-.106-.153s-.062-.1-.1-.145c-.09-.116-.165-.227-.226-.324s-.123-.207-.187-.33q.009-.14.02-.474t.035-.734q.025-.4.058-.808c.022-.272.053-.509.089-.712.034-.174.074-.365.121-.563a4.632,4.632,0,0,1,.167-.556,2.149,2.149,0,0,1,.227-.45.582.582,0,0,1,.3-.247.3.3,0,0,0,.121.082,1.123,1.123,0,0,0,.116.032,2.677,2.677,0,0,0,.316.291,2.99,2.99,0,0,0,.346.227,5.345,5.345,0,0,1-.062.559q-.049.31-.107.621c-.04.208-.077.41-.116.608s-.065.366-.084.508a2.564,2.564,0,0,0-.044.383,9.235,9.235,0,0,0-.021,1.005.768.768,0,0,0,.233-.163q.121-.116.232-.242a3.752,3.752,0,0,0,.252-.305,4.42,4.42,0,0,0,.261-.385q.1-.174.191-.356c.058-.122.116-.254.174-.4s.129-.315.213-.513q.112-.254.232-.545c.081-.193.162-.381.245-.562s.166-.349.249-.5a2.565,2.565,0,0,1,.233-.362.974.974,0,0,0,.226.155,1.028,1.028,0,0,0,.278.1c.048.053.092.1.135.145s.083.082.121.116c.046.052.092.1.136.149s.085.094.124.141c0,.046,0,.106,0,.178s-.005.153-.009.24-.009.174-.016.265-.014.174-.022.256q-.024.38-.035.57c-.008.127-.012.227-.012.3s0,.134.008.183.012.116.024.2a.648.648,0,0,0,.038.192,1.112,1.112,0,0,0,.066.179.721.721,0,0,0,.1.163l.344-.358a1.494,1.494,0,0,0,.266-.391,3.959,3.959,0,0,0,.217-.548q.1-.308.185-.667l.174-.73q.128-.545.266-1.062a3.9,3.9,0,0,1,.291-.807,3.068,3.068,0,0,1,.414.222,1.788,1.788,0,0,1,.322.265,1.5,1.5,0,0,1,.245.349,2.3,2.3,0,0,1,.174.49c-.083.245-.161.494-.232.749s-.138.51-.2.764q-.126.495-.267.988a8.545,8.545,0,0,1-.331.956,5.426,5.426,0,0,1-.449.86,3.013,3.013,0,0,1-.623.71.736.736,0,0,0-.189,0A.4.4,0,0,0,189.463,263.549Z" transform="translate(-168.807 -255.871)" fill="#02222e"/>
          <path id="Path_5529" data-name="Path 5529" d="M208,261.5a.772.772,0,0,1,.033.462.566.566,0,0,1-.2.282.794.794,0,0,1-.332.142,1.734,1.734,0,0,1-.372.035,1.546,1.546,0,0,1-.224-.314q-.108-.193-.208-.4c-.067-.139-.128-.278-.185-.415s-.106-.259-.148-.366a.94.94,0,0,0,.024-.276c0-.1-.013-.2-.025-.309s-.025-.21-.037-.317-.019-.211-.021-.31a4.63,4.63,0,0,1,.085-.807,5.3,5.3,0,0,0,.1-.8.258.258,0,0,0-.039-.163.214.214,0,0,1-.035-.144.078.078,0,0,1,.051-.062.077.077,0,0,0,.048-.071.39.39,0,0,0-.01-.174.259.259,0,0,1,.01-.17c.024-.058.054-.138.088-.246a.569.569,0,0,0,.007-.324,1.126,1.126,0,0,0,.145-.16,1.533,1.533,0,0,1,.14-.164,1,1,0,0,1,.168-.139.581.581,0,0,1,.241-.086.5.5,0,0,1,.133.2c.028.076.058.151.083.226a.911.911,0,0,0,.105.208.354.354,0,0,0,.189.137c.007.051.017.116.029.194s.026.154.043.227a.8.8,0,0,0,.074.2.189.189,0,0,0,.129.105q-.106.492-.19.971a8.843,8.843,0,0,0-.113.955,6.116,6.116,0,0,0,.015.945A4.061,4.061,0,0,0,208,261.5Z" transform="translate(-182.667 -255.335)" fill="#02222e"/>
          <path id="Path_5530" data-name="Path 5530" d="M215.115,258.531a.179.179,0,0,0-.111.122c-.018.058-.034.116-.048.18s-.029.116-.045.17a.109.109,0,0,1-.091.087.286.286,0,0,1-.034.144c-.024.044-.045.088-.065.134a.527.527,0,0,0-.039.145.281.281,0,0,0,.045.167.255.255,0,0,0-.073.179c0,.073-.007.144-.014.21a.4.4,0,0,1-.058.178.253.253,0,0,1-.205.09c-.016.029-.016.045,0,.049s.027.026.039.063a.233.233,0,0,0-.158.038.314.314,0,0,1-.125.063.649.649,0,0,1-.336-.159,1.8,1.8,0,0,1-.261-.294q-.116-.166-.219-.341t-.188-.3a.47.47,0,0,0-.02-.21.441.441,0,0,0-.093-.16q.328-1.08.723-2.309t.737-2.42a4.785,4.785,0,0,1,.471.134,2.341,2.341,0,0,1,.436.2,1.524,1.524,0,0,1,.355.291,1.087,1.087,0,0,1,.227.4c-.008.041-.02.058-.038.051s-.031,0-.041.02a.255.255,0,0,1,.053.062.078.078,0,0,1,.006.039.191.191,0,0,0,.046.142c-.027,0-.044,0-.052.018s-.029.017-.063.009a.326.326,0,0,1,.05.171.486.486,0,0,1-.026.128.592.592,0,0,0-.032.123.281.281,0,0,0,.034.159.058.058,0,0,0-.042.021.176.176,0,0,0-.02.033.278.278,0,0,1-.019.034.043.043,0,0,1-.044.011,2.359,2.359,0,0,1,.083.424q.021.215.049.434c.018.146.042.3.072.455a2.647,2.647,0,0,0,.14.481,1.669,1.669,0,0,0,.481-.607,3.1,3.1,0,0,0,.232-.769,5.2,5.2,0,0,0,.074-.884q0-.465.008-.953a.612.612,0,0,0,.105-.232,2.8,2.8,0,0,0,.048-.28c.012-.1.024-.2.037-.291a1.431,1.431,0,0,1,.058-.272.55.55,0,0,1,.261.058,1.918,1.918,0,0,1,.213.127,2.11,2.11,0,0,0,.208.129.524.524,0,0,0,.257.058q.14.148.26.291a.9.9,0,0,1,.174.312.619.619,0,0,0-.048.185c-.006.067-.015.135-.025.2a.847.847,0,0,1-.051.191.449.449,0,0,1-.116.161q.008.257-.005.472t-.027.426q-.014.21-.011.433a2.9,2.9,0,0,0,.051.484c-.03.157-.061.324-.1.5a4.712,4.712,0,0,0-.069.476.911.911,0,0,0-.2.337q-.062.188-.134.376c-.023.03-.038.039-.046.027s-.033-.018-.072-.019a.091.091,0,0,1,.009.058.139.139,0,0,1-.019.038.079.079,0,0,0-.013.046.148.148,0,0,0,.026.076.779.779,0,0,0-.219.2,1.91,1.91,0,0,1-.2.228.7.7,0,0,1-.274.159.918.918,0,0,1-.452,0,3.76,3.76,0,0,1-.8-.567A3.224,3.224,0,0,1,215.115,258.531Z" transform="translate(-186.82 -253.908)" fill="#02222e"/>
        </g>
        <g id="Group_5971" data-name="Group 5971" transform="translate(26.167 18.265)">
          <path id="Path_5531" data-name="Path 5531" d="M.87,0H4.554A1.975,1.975,0,0,1,6.529,1.975V14.4a1.975,1.975,0,0,1-1.975,1.975H.87a.87.87,0,0,1-.87-.87V.87A.87.87,0,0,1,.87,0Z" transform="translate(0 19.807)" fill="#fff" stroke="#1e1e28" stroke-width="1.424"/>
          <path id="Path_5532" data-name="Path 5532" d="M625.279,42.2v13.4a.386.386,0,0,0,.325.381,76.128,76.128,0,0,0,11.707,1.052c4.383-.106,7.107-1.185,7.328-2.305.22-1.451-.187-1.438-.054-2.039s1.307-.528,1.679-2.052c.426-1.745-.748-1.839-.706-2.424s1.451-.947,1.451-2.253-1.132-1.612-1.143-2.078,1.148-.539,1.025-2.239c-.147-2.025-.786-2.385-3.3-2.586-3.363-.267-5.751.427-6.5,0-.585-.333-.212-2.331.294-3.171,1.027-1.706,1.506-2.265,1.506-4.477s-.666-3.624-1.506-4.117a3.649,3.649,0,0,0-2.466-.187c-.253.253-.179.829-.613,2.971-.559,2.771-2.105,4.318-3.811,6.556-1.59,2.086-2.283,4.671-4.895,5.19a.388.388,0,0,0-.315.381Z" transform="translate(-618.746 -20.961)" fill="#fff" stroke="#1e1e28" stroke-width="1.424"/>
          <path id="Path_5533" data-name="Path 5533" d="M637.728,39.086a12.6,12.6,0,0,1-3.941,0" transform="translate(-618.668 -20.85)" fill="#fff" stroke="#1e1e28" stroke-linecap="round" stroke-width="1.424"/>
          <line id="Line_1061" data-name="Line 1061" y1="2.628" transform="translate(17.22)" fill="#fff" stroke="#1e1e28" stroke-linecap="round" stroke-width="1.424"/>
          <g id="Group_5970" data-name="Group 5970" transform="translate(11.424 2.274)">
            <line id="Line_1062" data-name="Line 1062" x1="1.858" y1="1.858" fill="#fff" stroke="#1e1e28" stroke-linecap="round" stroke-width="1.424"/>
            <line id="Line_1063" data-name="Line 1063" y1="1.858" x2="1.858" transform="translate(9.736)" fill="#fff" stroke="#1e1e28" stroke-linecap="round" stroke-width="1.424"/>
          </g>
        </g>
        <rect id="Rectangle_3716" data-name="Rectangle 3716" width="80.047" height="25.852" rx="5.669" transform="translate(0 58.723)" fill="#f8ec30"/>
        <g id="Group_5972" data-name="Group 5972" transform="translate(11.804 63.461)">
          <path id="Path_5534" data-name="Path 5534" d="M608.605,67.357a1.279,1.279,0,0,0-1.1.553,2.58,2.58,0,0,0-.4,1.526q0,2.023,1.608,2.023a3.45,3.45,0,0,0,.943-.129c.3-.088.61-.19.918-.311v1.6a5.265,5.265,0,0,1-2.075.387,3.365,3.365,0,0,1-2.543-.919,3.687,3.687,0,0,1-.884-2.658,4.089,4.089,0,0,1,.429-1.912,2.977,2.977,0,0,1,1.231-1.267,3.865,3.865,0,0,1,1.891-.443,5.413,5.413,0,0,1,2.271.493l-.607,1.491a6.786,6.786,0,0,0-.812-.308A2.955,2.955,0,0,0,608.605,67.357Z" transform="translate(-604.558 -65.799)" fill="#231f20"/>
          <path id="Path_5535" data-name="Path 5535" d="M615.946,72.908l-.361-1.313H613.2l-.372,1.313h-2.175l2.39-7.033h2.642l2.419,7.033Zm-.772-2.865-.316-1.151q-.11-.383-.267-.991t-.208-.872c-.03.164-.088.431-.176.8s-.285,1.11-.589,2.209Z" transform="translate(-604.518 -65.798)" fill="#231f20"/>
          <path id="Path_5536" data-name="Path 5536" d="M623.113,70.775a2,2,0,0,1-.345,1.158,2.249,2.249,0,0,1-1,.785,3.845,3.845,0,0,1-1.528.28,6.546,6.546,0,0,1-1.228-.1,4.8,4.8,0,0,1-1.032-.343V70.871a6.04,6.04,0,0,0,1.178.434,4.622,4.622,0,0,0,1.123.155,1.143,1.143,0,0,0,.646-.145.447.447,0,0,0,.205-.377.4.4,0,0,0-.083-.251.935.935,0,0,0-.264-.217c-.122-.075-.448-.224-.975-.451a4.711,4.711,0,0,1-1.075-.6,1.848,1.848,0,0,1-.532-.67,2.143,2.143,0,0,1-.174-.9,1.767,1.767,0,0,1,.738-1.51,3.351,3.351,0,0,1,2.023-.541,5.907,5.907,0,0,1,2.32.5l-.607,1.462a4.549,4.549,0,0,0-1.774-.45.961.961,0,0,0-.561.129.386.386,0,0,0-.176.321.457.457,0,0,0,.22.369,8.521,8.521,0,0,0,1.21.595,3.364,3.364,0,0,1,1.316.874A1.848,1.848,0,0,1,623.113,70.775Z" transform="translate(-604.451 -65.792)" fill="#231f20"/>
          <path id="Path_5537" data-name="Path 5537" d="M629.957,72.906h-1.989V70.051h-2.3v2.855h-1.989V65.9h1.989v2.6h2.3V65.9h1.989Z" transform="translate(-604.396 -65.796)" fill="#231f20"/>
          <path id="Path_5538" data-name="Path 5538" d="M638.414,68.119a2.287,2.287,0,0,1-.723,1.813,3.006,3.006,0,0,1-2.058.64h-.554V72.9H633.1V65.889h2.535a3.2,3.2,0,0,1,2.086.58A2.023,2.023,0,0,1,638.414,68.119Zm-3.337.91h.36a1.012,1.012,0,0,0,.709-.24.851.851,0,0,0,.264-.66q0-.709-.822-.709h-.511Z" transform="translate(-604.314 -65.785)" fill="#231f20"/>
          <path id="Path_5539" data-name="Path 5539" d="M640.993,70.357v2.551h-1.979V65.9h2.4q2.985,0,2.987,2.07a2.062,2.062,0,0,1-1.243,1.882l2.135,3.053H643.05L641.5,70.354Zm0-1.423h.37q1.037,0,1.038-.876,0-.724-1.017-.724h-.391Z" transform="translate(-604.257 -65.796)" fill="#231f20"/>
          <path id="Path_5540" data-name="Path 5540" d="M645.386,72.906V65.9h1.989v7.006Z" transform="translate(-604.197 -65.796)" fill="#231f20"/>
          <path id="Path_5541" data-name="Path 5541" d="M653.646,72.906h-5.708V71.738l3.172-4.308h-3.1V65.9h5.553v1.165l-3.172,4.31h3.255Z" transform="translate(-604.174 -65.796)" fill="#231f20"/>
          <path id="Path_5542" data-name="Path 5542" d="M658.472,72.906h-4.351V65.9h4.351v1.519H656.1v1.1h2.2V70.04h-2.2v1.322h2.371Z" transform="translate(-604.117 -65.796)" fill="#231f20"/>
          <path id="Path_5543" data-name="Path 5543" d="M613.124,81.82h-2.339l-.7-3.053q-.05-.191-.158-.76c-.072-.38-.125-.7-.157-.955q-.044.312-.132.774c-.061.308-.119.592-.176.851s-.3,1.307-.73,3.143H606.39l-1.813-7.005h1.909l.8,3.512q.271,1.164.371,1.855.065-.489.233-1.328t.313-1.39l.647-2.649h1.834l.627,2.649c.107.425.215.917.325,1.472s.184.971.22,1.246q.065-.533.356-1.845l.812-3.522h1.909Z" transform="translate(-604.577 -65.715)" fill="#231f20"/>
          <path id="Path_5544" data-name="Path 5544" d="M619.766,81.82l-.362-1.313h-2.38l-.37,1.313h-2.175l2.39-7.033h2.641l2.419,7.033Zm-.773-2.865-.315-1.151c-.075-.256-.162-.585-.268-.991s-.176-.7-.208-.872c-.029.164-.088.431-.176.805s-.285,1.109-.589,2.208Z" transform="translate(-604.483 -65.716)" fill="#231f20"/>
          <path id="Path_5545" data-name="Path 5545" d="M624.117,79.271v2.551h-1.979V74.815h2.4q2.985,0,2.987,2.07a2.062,2.062,0,0,1-1.243,1.882l2.134,3.053h-2.243l-1.554-2.551Zm0-1.423h.37q1.037,0,1.038-.876,0-.723-1.017-.724h-.391Z" transform="translate(-604.413 -65.715)" fill="#231f20"/>
          <path id="Path_5546" data-name="Path 5546" d="M630.491,79.271v2.551h-1.979V74.815h2.4q2.985,0,2.987,2.07a2.061,2.061,0,0,1-1.243,1.882l2.134,3.053h-2.243l-1.554-2.551Zm0-1.423h.37q1.037,0,1.037-.876,0-.723-1.017-.724h-.39Z" transform="translate(-604.354 -65.715)" fill="#231f20"/>
          <path id="Path_5547" data-name="Path 5547" d="M639.388,81.82l-.362-1.313h-2.38l-.37,1.313H634.1l2.39-7.033h2.641l2.419,7.033Zm-.773-2.865L638.3,77.8q-.11-.383-.268-.991c-.105-.4-.176-.7-.208-.872-.03.164-.088.431-.176.805s-.285,1.109-.589,2.208Z" transform="translate(-604.302 -65.716)" fill="#231f20"/>
          <path id="Path_5548" data-name="Path 5548" d="M648.736,81.82h-2.595l-2.678-4.935h-.044q.1,1.166.1,1.778V81.82H641.76V74.815h2.586l2.666,4.868h.03c-.047-.706-.069-1.273-.069-1.7V74.815h1.763Z" transform="translate(-604.231 -65.715)" fill="#231f20"/>
          <path id="Path_5549" data-name="Path 5549" d="M652.97,81.82h-1.979V76.363H649.2V74.815h5.553v1.548h-1.783Z" transform="translate(-604.161 -65.715)" fill="#231f20"/>
          <path id="Path_5550" data-name="Path 5550" d="M657.857,77.413l1.263-2.6h2.145l-2.41,4.269V81.82h-2V79.142l-2.411-4.327H656.6Z" transform="translate(-604.113 -65.715)" fill="#231f20"/>
        </g>
      </g>
      <text id="_10" data-name="10" transform="translate(66.815 23.461)" fill="#231f20" stroke="rgba(0,0,0,0)" stroke-width="1" font-size="18" font-family="Impact"><tspan x="-8" y="0">10</tspan></text>
    </g>
  </g>
</svg>
