<svg xmlns="http://www.w3.org/2000/svg" width="106.501" height="100" viewBox="0 0 106.501 100">
  <g id="Group_6735" data-name="Group 6735" transform="translate(-566 -1044)">
    <path id="Path_26532" data-name="Path 26532" d="M131.438,42.5H104.562A7.063,7.063,0,0,1,97.5,35.437V8.562A7.063,7.063,0,0,1,104.562,1.5h26.876A7.063,7.063,0,0,1,138.5,8.562V35.438a7.063,7.063,0,0,1-7.061,7.062" transform="translate(470.001 1044)" fill="#656565" opacity="0.15"/>
    <path id="Path_26533" data-name="Path 26533" d="M131.438,42.5H104.562A7.063,7.063,0,0,1,97.5,35.437V8.562A7.063,7.063,0,0,1,104.562,1.5h26.876A7.063,7.063,0,0,1,138.5,8.562V35.438a7.063,7.063,0,0,1-7.061,7.062" transform="translate(470.001 1044)" fill="none" stroke="#656565" stroke-width="3"/>
    <path id="Path_26534" data-name="Path 26534" d="M187.438,42.5H160.561a7.063,7.063,0,0,1-7.062-7.062V8.562A7.063,7.063,0,0,1,160.561,1.5h26.877A7.063,7.063,0,0,1,194.5,8.562V35.438a7.063,7.063,0,0,1-7.061,7.062" transform="translate(470.001 1044)" fill="#fff" stroke="#656565" stroke-width="3"/>
    <path id="Path_26535" data-name="Path 26535" d="M172.512,34.037a2.54,2.54,0,0,1-1.8-.748l-9.283-9.282a2.552,2.552,0,1,1,3.554-3.664l.055.055,7.478,7.478L198.185,2.207a2.552,2.552,0,0,1,3.608,3.609L174.315,33.293a2.54,2.54,0,0,1-1.8.748" transform="translate(470.001 1044)" fill="#ffa319"/>
    <path id="Path_26536" data-name="Path 26536" d="M187.438,98.5H160.561a7.063,7.063,0,0,1-7.062-7.062V64.562a7.063,7.063,0,0,1,7.062-7.062h26.877a7.063,7.063,0,0,1,7.061,7.062V91.438a7.063,7.063,0,0,1-7.061,7.062" transform="translate(470.001 1044)" fill="#656565" opacity="0.15"/>
    <path id="Path_26537" data-name="Path 26537" d="M187.438,98.5H160.561a7.063,7.063,0,0,1-7.062-7.062V64.562a7.063,7.063,0,0,1,7.062-7.062h26.877a7.063,7.063,0,0,1,7.061,7.062V91.438a7.063,7.063,0,0,1-7.061,7.062" transform="translate(470.001 1044)" fill="none" stroke="#656565" stroke-width="3"/>
    <path id="Path_26538" data-name="Path 26538" d="M131.438,98.5H104.562A7.063,7.063,0,0,1,97.5,91.437V64.562a7.063,7.063,0,0,1,7.063-7.062h26.876a7.063,7.063,0,0,1,7.061,7.062V91.438a7.063,7.063,0,0,1-7.061,7.062" transform="translate(470.001 1044)" fill="#fff" stroke="#656565" stroke-width="3"/>
    <path id="Path_26539" data-name="Path 26539" d="M116.512,90.037a2.54,2.54,0,0,1-1.8-.748l-9.283-9.282a2.552,2.552,0,0,1,3.554-3.664l.055.055,7.478,7.478,25.673-25.669a2.552,2.552,0,0,1,3.608,3.609L118.315,89.293a2.54,2.54,0,0,1-1.8.748" transform="translate(470.001 1044)" fill="#ffa319"/>
  </g>
</svg>
