<svg id="ContactCall" xmlns="http://www.w3.org/2000/svg" width="23.457" height="23.457" viewBox="0 0 23.457 23.457">
  <path id="Path_2023" data-name="Path 2023" d="M860.938,503.03a2.557,2.557,0,0,1,2.554,2.554,1.236,1.236,0,1,0,2.471,0,5.031,5.031,0,0,0-5.025-5.025,1.236,1.236,0,0,0,0,2.471Z" transform="translate(-847.947 -495.118)" fill="#24484b"/>
  <path id="Path_2024" data-name="Path 2024" d="M860.938,462.028a8,8,0,0,1,8,8,1.236,1.236,0,1,0,2.471,0,10.478,10.478,0,0,0-10.467-10.467,1.236,1.236,0,1,0,0,2.471Z" transform="translate(-847.947 -459.557)" fill="#24484b"/>
  <path id="Path_2025" data-name="Path 2025" d="M786.293,492.8a6.991,6.991,0,0,0,5.465-2.028l.835-.835a1.659,1.659,0,0,0-.3-2.584l-4.279-2.647a1.659,1.659,0,0,0-2.3.572l-.972,1.658a.763.763,0,0,1-1.2.154l-6.688-6.689a.763.763,0,0,1,.153-1.2l1.658-.972a1.659,1.659,0,0,0,.572-2.3l-2.647-4.279a1.659,1.659,0,0,0-2.583-.3l-.835.835a6.991,6.991,0,0,0-2.028,5.466,6.228,6.228,0,0,0,1.807,3.939l9.4,9.4A6.229,6.229,0,0,0,786.293,492.8Z" transform="translate(-771.124 -469.364)" fill="#24484b"/>
</svg>
