<svg xmlns="http://www.w3.org/2000/svg" width="14.022" height="15.892" viewBox="0 0 14.022 15.892">
  <g id="Icon_SecMen_AddFunds" transform="translate(-693.001 -9.999)">
    <path id="Path_1679" data-name="Path 1679" d="M4382.086,5026.893a.936.936,0,0,0,1.367,0l4.674-4.5a.934.934,0,0,0-.683-1.572h-2.337v-5.141a.934.934,0,0,0-.935-.935h-2.8a.934.934,0,0,0-.935.935v5.141H4378.1a.934.934,0,0,0-.683,1.572Z" transform="translate(-3682.758 -5004.742)" fill="#fff"/>
    <path id="Path_1680" data-name="Path 1680" d="M4387.249,5036.741a.935.935,0,0,0-.935.935v2.8h-10.283v-2.8a.935.935,0,1,0-1.869,0v3.739a.935.935,0,0,0,.935.935h12.152a.935.935,0,0,0,.935-.935v-3.739A.935.935,0,0,0,4387.249,5036.741Z" transform="translate(-3681.16 -5016.459)" fill="#fff"/>
  </g>
</svg>
