<svg xmlns="http://www.w3.org/2000/svg" width="23" height="23" viewBox="0 0 23 23">
  <g id="MainMenu_Icon_Phone" data-name="MainMenu Icon Phone" transform="translate(-761.5 -793.5)">
    <path id="Path_1769" data-name="Path 1769" d="M40.25,31.25a11,11,0,1,0,11,11A11,11,0,0,0,40.25,31.25Z" transform="translate(732.75 762.75)" fill="#656565" stroke="rgba(0,0,0,0)" stroke-width="1"/>
    <path id="Path_1768" data-name="Path 1768" d="M44.495,43.6a6.016,6.016,0,0,1-1.884-.3.938.938,0,0,0-.961.223l-1.039,1.041a8.218,8.218,0,0,1-3.173-3.172l1.041-1.04a.948.948,0,0,0,.231-.957,6,6,0,0,1-.3-1.888.938.938,0,0,0-.936-.938H35.505a.939.939,0,0,0-.938.938,9.94,9.94,0,0,0,9.928,9.928.939.939,0,0,0,.938-.938V44.534A.938.938,0,0,0,44.495,43.6Z" transform="translate(733.433 763.433)" fill="#fff"/>
  </g>
</svg>
