<svg xmlns="http://www.w3.org/2000/svg" width="104.996" height="30.288" viewBox="0 0 104.996 30.288">
  <g id="ST_Footer_GC" transform="translate(-217.2 -705.356)">
    <path id="Path_2129" data-name="Path 2129" d="M256.829,716.887c.07.262-.017.42-.227.49l-2.012.595c-.245.07-.367,0-.455-.245a2.05,2.05,0,0,0-2.222-1.575c-1.89,0-2.537,1.12-2.537,2.625v3.463c0,1.5.63,2.625,2.537,2.625,1.557,0,2.38-.717,2.38-2.31V722.1h-2.047c-.175,0-.28-.087-.28-.3v-1.925a.273.273,0,0,1,.241-.3H256.8c.192,0,.3.087.3.28v2.87c0,2.73-2.012,4.794-5.144,4.794-3.709,0-5.442-2.2-5.442-5.214v-3.657c0-3.009,1.732-5.214,5.442-5.214a4.724,4.724,0,0,1,4.882,3.447Zm10.2,3.412v6.719a.268.268,0,0,1-.245.28h-2.078a.273.273,0,0,1-.3-.241v-1.141a3.237,3.237,0,0,1-2.835,1.592,2.971,2.971,0,0,1-3.184-3.167c0-1.872,1.172-2.974,4.042-3.184a13.3,13.3,0,0,1,1.872-.018v-.752a1.24,1.24,0,0,0-1.417-1.4,1.289,1.289,0,0,0-1.417.945c-.087.227-.175.262-.367.21l-2.047-.525c-.21-.052-.227-.175-.192-.315.28-1.47,1.68-2.555,4.129-2.555,2.588.017,4.04,1.26,4.04,3.552Zm-2.73,3.534v-.98a12.906,12.906,0,0,0-1.645.052c-1.05.122-1.592.455-1.592,1.242,0,.717.49,1.12,1.277,1.12a1.988,1.988,0,0,0,1.96-1.435Zm10.113-7.069a2.625,2.625,0,0,1,2.555,1.872,3.608,3.608,0,0,1,2.992-1.872c1.8,0,2.835,1.435,2.835,3.569v6.684a.3.3,0,0,1-.318.281h-2.149c-.192,0-.332-.1-.332-.28v-6.194c0-.927-.4-1.487-1.137-1.487-.77,0-1.33.63-1.592,1.592v6.089a.268.268,0,0,1-.245.28h-2.327c-.175,0-.245-.1-.245-.28v-6.194c0-.927-.42-1.487-1.137-1.487-.787,0-1.347.665-1.592,1.627v6.077a.255.255,0,0,1-.227.28h-2.31a.255.255,0,0,1-.28-.227v-9.816a.27.27,0,0,1,.262-.262h2.187a.256.256,0,0,1,.279.233v1.2a3.374,3.374,0,0,1,2.782-1.68Zm20.087.227c.052.245-.018.42-.245.49l-1.977.577c-.245.07-.367-.017-.455-.245a2.011,2.011,0,0,0-2.135-1.68c-1.7,0-2.24,1.12-2.24,2.625v3.464c0,1.5.612,2.625,2.24,2.625a2.076,2.076,0,0,0,2.24-1.837.31.31,0,0,1,.337-.28.288.288,0,0,1,.118.035l1.977.63a.364.364,0,0,1,.245.49c-.472,2.012-1.925,3.657-4.934,3.657-3.394,0-5.092-2.2-5.092-5.214v-3.657c0-3.009,1.75-5.214,5.092-5.214,2.936,0,4.323,1.558,4.831,3.535Zm9.921,3.307v6.719a.268.268,0,0,1-.245.28h-2.082a.272.272,0,0,1-.3-.241v-1.141a3.237,3.237,0,0,1-2.835,1.592,2.971,2.971,0,0,1-3.184-3.167c0-1.872,1.172-2.974,4.042-3.184a13.289,13.289,0,0,1,1.872-.018v-.752a1.24,1.24,0,0,0-1.417-1.4,1.289,1.289,0,0,0-1.417.945c-.087.227-.175.262-.367.21l-2.047-.525a.225.225,0,0,1-.192-.315c.28-1.47,1.68-2.555,4.129-2.555,2.592.018,4.044,1.261,4.044,3.553Zm-2.747,3.534v-.98a12.905,12.905,0,0,0-1.645.052c-1.05.122-1.592.455-1.592,1.242,0,.717.49,1.12,1.277,1.12a1.974,1.974,0,0,0,1.96-1.435Zm10.708-6.649v1.995c0,.245-.088.332-.332.332h-.3a2.434,2.434,0,0,0-2.66,1.785v5.745a.255.255,0,0,1-.227.28h-2.356a.254.254,0,0,1-.245-.262v-9.8a.252.252,0,0,1,.227-.262h2.152c.227,0,.28.14.28.3v1.382a3.242,3.242,0,0,1,2.992-1.8c.4,0,.472.052.472.315Zm3.657,5.827v.385a1.669,1.669,0,0,0,1.872,1.837,1.861,1.861,0,0,0,1.977-1.1c.175-.28.245-.315.542-.192l1.47.752c.3.157.315.3.192.577a4.31,4.31,0,0,1-4.182,2.257c-2.974,0-4.549-1.767-4.549-4.182v-2.38c0-2.345,1.47-4.182,4.514-4.182,2.9,0,4.322,1.837,4.322,4.129v1.645c0,.28-.087.472-.49.472Zm0-2.187v.35h3.587v-.35a1.794,1.794,0,1,0-3.587,0Z" fill="#24484b"/>
    <g id="Group_3016" data-name="Group 3016">
      <path id="Path_2172" data-name="Path 2172" d="M230.078,705.356H217.585a.388.388,0,0,0-.385.385V723.9a11.743,11.743,0,0,0,11.741,11.741h1.137A11.727,11.727,0,0,0,241.8,723.912V717.1a11.705,11.705,0,0,0-11.669-11.741Z" fill="#24484b"/>
      <path id="Path_2173" data-name="Path 2173" d="M238.057,724.095c0,4.409-3.254,7.751-8.294,7.751-5.984,0-8.784-3.552-8.784-8.416v-5.9c0-4.864,2.8-8.416,8.784-8.416,4.847,0,7.034,2.765,7.909,5.529a.567.567,0,0,1-.274.753.519.519,0,0,1-.093.034l-3.254.962c-.385.122-.6,0-.717-.385a3.32,3.32,0,0,0-3.569-2.555c-3.062,0-4.094,1.8-4.094,4.234v5.6c0,2.432,1.015,4.234,4.094,4.234,2.52,0,3.849-1.172,3.849-3.727v-.717h-3.361a.428.428,0,0,1-.456-.4.366.366,0,0,1,0-.074v-3.1a.443.443,0,0,1,.391-.488.458.458,0,0,1,.064,0h7.331a.419.419,0,0,1,.47.363.4.4,0,0,1,0,.092Z" fill="#fff"/>
    </g>
  </g>
</svg>
